<svg width="1737" height="331" viewBox="0 0 1737 331" fill="none" xmlns="http://www.w3.org/2000/svg">
<path d="M164.498 1.41211C196.963 1.41211 228.698 11.039 255.691 29.0753C282.685 47.1116 303.723 72.7474 316.147 102.741C320.392 112.99 323.567 123.591 325.653 134.376H251.126C250.636 133.015 250.113 131.664 249.558 130.323C242.589 113.5 230.789 99.1207 215.648 89.0042C200.508 78.8877 182.707 73.488 164.498 73.488C140.08 73.488 116.662 83.188 99.3964 100.454C82.1303 117.72 72.4304 141.138 72.4304 165.556C72.4304 183.765 77.8301 201.565 87.9466 216.706C98.0631 231.846 112.442 243.647 129.265 250.615C146.088 257.584 164.6 259.407 182.46 255.854C200.319 252.302 216.724 243.533 229.6 230.657C239.556 220.701 247.057 208.634 251.589 195.416H325.903C325.769 196.138 325.631 196.858 325.488 197.579C319.154 229.419 303.521 258.667 280.565 281.623C257.609 304.579 228.362 320.212 196.521 326.545C164.68 332.879 131.676 329.628 101.683 317.205C71.6897 304.781 46.054 283.742 28.0177 256.749C9.98135 229.756 0.354492 198.02 0.354492 165.556C0.354492 122.022 17.6481 80.2716 48.431 49.4887C79.2139 18.7058 120.965 1.41211 164.498 1.41211Z" fill="black"/>
<path fill-rule="evenodd" clip-rule="evenodd" d="M775.935 330.365C866.956 330.365 940.743 256.577 940.743 165.556C940.743 74.5353 866.956 0.748077 775.935 0.748069L517.336 0.748047C426.315 0.748039 352.528 74.5352 352.528 165.556C352.528 256.577 426.315 330.364 517.336 330.364L775.935 330.365ZM517.964 73.993C467.205 73.993 426.056 114.986 426.056 165.553C426.056 216.12 467.205 257.113 517.964 257.113C568.724 257.113 609.873 216.12 609.873 165.553C609.873 114.986 568.724 73.993 517.964 73.993Z" fill="#2BAEFF"/>
<path fill-rule="evenodd" clip-rule="evenodd" d="M967.369 11.8242H1129.59C1182.34 11.8242 1272.84 50.6507 1272.84 166.251C1272.84 281.851 1187.09 319.288 1131.69 319.288H967.369V11.8242ZM1039 256.326V75.8355H1119.05C1168.29 75.8355 1201.21 117.101 1201.21 166.251C1201.21 215.401 1169.53 256.326 1119.05 256.326H1039Z" fill="black"/>
<rect x="1299.47" y="12.957" width="79.6541" height="305.2" fill="black"/>
<path fill-rule="evenodd" clip-rule="evenodd" d="M1571.18 0.748047C1603.9 0.748047 1635.89 10.4139 1663.09 28.5232C1690.3 46.6326 1711.5 72.3721 1724.03 102.487C1736.55 132.602 1739.82 165.739 1733.44 197.709C1727.06 229.678 1711.3 259.044 1688.16 282.093C1665.03 305.142 1635.55 320.838 1603.46 327.198C1571.37 333.557 1538.1 330.293 1507.87 317.819C1477.64 305.345 1451.81 284.221 1433.63 257.119C1415.45 230.016 1405.75 198.152 1405.75 165.556C1405.75 121.846 1423.18 79.9268 1454.2 49.0192C1485.23 18.1117 1527.31 0.748047 1571.18 0.748047ZM1571.18 73.1157C1589.54 73.1157 1607.48 78.5373 1622.74 88.6948C1638 98.8523 1649.89 113.289 1656.91 130.181C1663.94 147.072 1665.77 165.659 1662.19 183.59C1658.61 201.522 1649.77 217.993 1636.8 230.922C1623.82 243.85 1607.29 252.654 1589.29 256.22C1571.29 259.787 1552.63 257.957 1535.67 250.96C1518.72 243.963 1504.23 232.115 1494.03 216.913C1483.83 201.712 1478.39 183.839 1478.39 165.556C1478.39 141.039 1488.17 117.527 1505.57 100.191C1522.97 82.855 1546.57 73.1157 1571.18 73.1157Z" fill="black"/>
</svg>
